<?xml version="1.0" encoding="UTF-8" standalone="no"?>
<!-- Created with Inkscape (http://www.inkscape.org/) -->

<svg
   version="1.1"
   id="svg1"
   width="1000"
   height="256"
   viewBox="80 80 3281.25 820.00001"
   sodipodi:docname="dark_logo.svg"
   inkscape:version="1.4.2 (ebf0e940, 2025-05-08)"
   inkscape:export-filename="dark_logo.png"
   inkscape:export-xdpi="96"
   inkscape:export-ydpi="96"
   xmlns:inkscape="http://www.inkscape.org/namespaces/inkscape"
   xmlns:sodipodi="http://sodipodi.sourceforge.net/DTD/sodipodi-0.dtd"
   xmlns="http://www.w3.org/2000/svg"
   xmlns:svg="http://www.w3.org/2000/svg">
  <sodipodi:namedview
     id="namedview1"
     pagecolor="#ffffff"
     bordercolor="#000000"
     borderopacity="0.25"
     inkscape:showpageshadow="false"
     inkscape:pageopacity="0.0"
     inkscape:pagecheckerboard="0"
     inkscape:deskcolor="#d1d1d1"
     inkscape:zoom="1.3"
     inkscape:cx="504.23077"
     inkscape:cy="132.30769"
     inkscape:window-width="1920"
     inkscape:window-height="1147"
     inkscape:window-x="0"
     inkscape:window-y="25"
     inkscape:window-maximized="1"
     inkscape:current-layer="g1"
     showborder="false"
     borderlayer="false"
     showguides="true" />
  <defs
     id="defs1">
    <inkscape:path-effect
       effect="fill_between_many"
       method="originald"
       linkedpaths="#path1,0,1"
       id="path-effect1"
       is_visible="true"
       lpeversion="0"
       join="true"
       close="true"
       autoreverse="true" />
  </defs>
  <g
     inkscape:groupmode="layer"
     inkscape:label="Image"
     id="g1">
    <path
       id="path2"
       style="display:inline;fill:#000000;stroke-width:1.00216"
       d="m 275.79913,98.237468 c -1.9207,0.03615 -3.77528,0.414146 -5.16811,1.174925 -5.50164,3.005007 -6.14706,6.217967 -6.143,30.699767 0.003,20.22971 0.1662,22.25962 1.97476,25.39283 3.61203,6.25758 11.86309,7.89324 17.50411,3.47196 4.53561,-3.5549 4.8716,-5.48367 4.88691,-28.28392 0.0152,-22.6157 -0.51999,-26.03351 -4.68693,-29.9539 -1.77415,-1.669168 -5.16657,-2.561904 -8.36774,-2.501662 z M 163.1691,145.40594 c -8.00533,0 -13.44202,5.97748 -12.46098,13.70302 0.48671,3.83273 2.05994,5.82929 16.99167,21.52483 l 16.45425,17.30038 h 5.04939 c 4.19836,0 5.58108,-0.50976 8.23024,-3.00992 2.87882,-2.71687 3.18088,-3.55974 3.18088,-8.77891 v -5.76898 l -16.62923,-17.48522 c -16.33975,-17.17556 -16.70987,-17.4852 -20.81622,-17.4852 z m 228.97837,0 c -2.17205,0 -4.90906,0.50796 -6.08051,1.13533 -3.0465,1.63157 -30.75181,30.76046 -32.42106,34.08591 -0.76783,1.52969 -1.39559,4.07745 -1.39357,5.66339 0.005,3.70075 3.28129,9.38424 6.09926,10.58089 2.81494,1.19536 9.60197,1.28754 11.29862,0.15182 3.68843,-2.469 32.46815,-33.82444 32.96474,-35.91431 1.87722,-7.90011 -3.32657,-15.70303 -10.46748,-15.70303 z m 39.40145,33.96051 -5.23685,6.44887 c -2.87868,3.54839 -7.97184,9.35065 -11.32363,12.89113 l -6.09301,6.43566 h 208.14342 208.1434 v 184.27123 184.26464 l 7.06789,4.11882 c 3.88828,2.26391 8.82839,5.5205 10.97366,7.23434 2.14526,1.71384 4.22845,3.14273 4.63069,3.18154 0.40223,0.0388 0.73116,-88.46748 0.73116,-196.68711 0,-191.04531 -0.0569,-196.87786 -1.84977,-200.58813 -2.2807,-4.71995 -4.42391,-6.81741 -9.39885,-9.18814 -3.66588,-1.74691 -14.20796,-1.85435 -204.82507,-2.11222 z m -154.87489,1.65678 c -12.93034,0.0442 -16.93822,0.43808 -23.4034,2.31023 -31.50903,9.1242 -56.20466,34.75224 -65.38579,67.84841 -3.12932,11.28055 -4.18741,28.56168 -2.44345,39.98032 5.34627,35.00514 28.97383,64.43013 61.21754,76.24449 5.4164,1.98461 12.40807,4.03317 15.54187,4.55446 9.12225,1.51747 29.93629,0.50976 38.45781,-1.86139 31.4188,-8.74247 56.70405,-35.60642 65.52328,-69.61738 3.0025,-11.57905 2.97691,-34.42506 -0.0563,-46.08598 -7.79298,-29.9603 -25.08996,-52.2752 -50.12516,-64.66687 -14.65212,-7.25236 -21.51622,-8.76731 -39.32646,-8.70629 z m -142.97634,83.02997 -24.41579,0.31024 -2.7934,3.30033 c -5.39514,6.38134 -4.38908,15.62939 2.16223,19.84826 2.99253,1.92708 4.83106,2.07673 25.17194,2.0264 14.33109,-0.0354 23.10844,-0.48416 25.31567,-1.28713 4.01007,-1.45884 7.83654,-6.95885 7.83654,-11.26736 0,-4.4945 -2.79826,-9.92116 -6.02426,-11.68321 -2.35208,-1.28471 -7.01088,-1.5025 -27.25293,-1.24753 z m 309.18735,0.31024 -23.62212,0.0198 c -12.99297,0.0105 -24.79124,0.35882 -26.22181,0.77228 -3.50346,1.01256 -6.66168,6.66247 -6.66168,11.91423 0,3.2349 0.68995,5.05447 2.96839,7.79541 1.63472,1.96654 3.93718,3.77129 5.11811,4.01322 1.18094,0.24192 11.70882,0.50371 23.39091,0.58085 15.98477,0.10555 22.01684,-0.21164 24.37828,-1.26734 5.23785,-2.34161 7.03665,-5.29653 7.03665,-11.55779 0,-4.88253 -0.37839,-5.93505 -3.19336,-8.90432 z m 50.26888,0 -6.96164,14.13206 c -8.59605,17.46202 -14.55947,26.05527 -25.9156,37.34664 l -8.81768,8.77231 H 606.08392 760.7151 l 5.24936,-10.03964 c 20.03034,-38.30033 24.34865,-46.85092 24.46577,-48.4292 0.12485,-1.68253 -8.18521,-1.78217 -148.56941,-1.78217 z m 239.21463,74.6735 0.69991,13.38619 0.69991,13.39278 -137.8582,0.0132 -137.86447,0.0132 -5.84928,12.08585 c -8.47881,17.52 -15.82872,28.81044 -25.80936,39.6305 -4.83899,5.24597 -8.80368,9.65378 -8.80518,9.7954 -0.002,0.14162 77.16369,0.25743 171.47287,0.25743 h 171.46662 l 5.34936,-10.55448 c 2.9404,-5.80639 9.84973,-19.22481 15.35437,-29.81528 5.50464,-10.59047 9.72344,-19.74586 9.37385,-20.3433 -0.41296,-0.70576 -7.79278,-1.08252 -21.05993,-1.08252 h -20.41626 v -13.39278 -13.38619 h -8.38023 z m -368.61138,16.55451 c -6.35304,-0.0316 -11.49871,5.56332 -11.50484,13.24098 -0.004,4.51973 0.1506,4.73252 15.84182,21.47201 8.71514,9.29734 16.7252,17.29175 17.79784,17.76904 2.69392,1.19871 7.66835,1.19553 10.6612,-0.007 3.41246,-1.37039 6.3948,-6.88405 6.39922,-11.83503 0.004,-3.92124 -0.67887,-4.80879 -16.8167,-21.82184 -10.88136,-11.4715 -17.79952,-17.98547 -19.59137,-18.44891 -0.94535,-0.2445 -1.87958,-0.36513 -2.78717,-0.36964 z m -179.20943,0.43564 -16.58548,17.49841 c -17.987,18.97389 -18.99224,20.67745 -16.24177,27.63046 1.84167,4.65562 6.69506,7.90913 11.81107,7.91422 3.7115,0.004 4.55914,-0.72312 20.72247,-17.79544 l 16.84794,-17.80204 v -4.8713 c 0,-4.11446 -0.51973,-5.47895 -3.33709,-8.72611 -3.01304,-3.47269 -3.81512,-3.8482 -8.27398,-3.8482 z m 92.63873,35.79551 c -0.58685,-9.4e-4 -1.20344,0.0315 -1.84978,0.099 -3.13319,0.32723 -5.06948,1.30176 -7.31161,3.66997 l -3.04962,3.22113 v 25.1288 25.1354 l 2.4372,2.76569 c 4.28341,4.86801 10.60222,6.01927 15.67935,2.85148 5.25602,-3.27942 5.77428,-6.05477 5.77428,-30.95059 0,-21.82859 -0.0782,-22.72805 -2.22473,-26.0925 -2.60828,-4.08809 -5.34714,-5.82053 -9.45509,-5.8284 z m -69.61652,26.90436 c -0.75793,0.005 -4.27906,2.98685 -8.17401,6.95053 -4.15462,4.22791 -8.87102,8.67674 -10.47997,9.88123 l -2.92465,2.18481 -0.26872,195.33398 -0.26872,195.33396 2.14974,4.03302 c 1.18064,2.21879 3.8917,5.31232 6.03053,6.87792 l 3.89327,2.8449 205.83119,0.51484 c 113.2085,0.28324 206.13484,0.39246 206.50611,0.23763 0.003,-9.4e-4 0.0161,-0.0116 0.0187,-0.0132 l 0.006,-0.007 0.006,-0.007 0.006,-0.007 0.006,-0.007 c 0.16642,-0.39803 -1.5472,-3.29157 -3.94951,-6.65349 -2.52046,-3.52727 -5.89409,-9.08079 -7.4991,-12.33668 l -2.91839,-5.92081 H 402.34623 209.15726 l -0.68743,-67.20657 c -0.37679,-36.9626 -0.54292,-126.60534 -0.3687,-199.20858 0.17422,-72.60323 -0.0146,-132.3589 -0.41869,-132.7859 l -0.006,-0.007 c -0.0249,-0.0203 -0.062,-0.0334 -0.10624,-0.033 z m 525.46102,22.27071 0.29996,12.73272 0.29371,12.7261 -48.07539,0.56767 c -26.44309,0.31076 -120.26319,0.64122 -208.48712,0.73267 -141.44248,0.14661 -160.52052,0.34618 -161.38035,1.70958 -19.89516,31.54703 -34.61453,55.662 -34.61453,56.70645 0,1.10189 43.1332,1.34655 239.34585,1.34655 h 239.34586 l 4.06201,-7.46537 c 7.05562,-12.98859 15.11704,-27.71326 21.27241,-38.83182 3.27611,-5.91769 5.95553,-11.36063 5.95553,-12.09904 0,-1.06185 -4.37879,-1.33995 -20.95995,-1.33995 h -20.9662 v -13.39278 -13.38617 l -8.04278,-0.007 z m 16.09179,99.82871 -8.04278,0.29703 c -4.18262,0.15552 -7.55669,0.60341 -7.79903,1.0099 -0.002,0.003 -0.005,0.0165 -0.006,0.0198 -7.1e-4,0.003 2.7e-4,0.0165 0,0.0198 1.5e-4,0.003 -6.1e-4,0.0165 0,0.0198 0.13407,0.42486 0.24372,5.17955 0.24372,10.56108 v 9.78222 h 7.80529 7.79906 v -10.85812 z m -267.42994,27.90109 -192.33909,0.0132 -3.33709,6.42246 c -1.83445,3.53376 -8.74186,16.15082 -15.35438,28.0331 -6.61252,11.88223 -12.02353,22.42734 -12.02353,23.43242 0,1.74307 8.02508,1.8284 173.96007,1.8284 h 173.96632 l 4.24323,-6.03964 c 14.08608,-20.02156 33.13803,-36.71582 55.39325,-48.53482 4.30841,-2.28803 7.83655,-4.38316 7.83655,-4.66007 0,-0.27691 -86.55707,-0.50177 -192.34533,-0.49504 z m 246.00754,19.55781 -3.1871,3.0033 -3.18087,3.00332 -0.32495,13.72942 c -0.17936,7.55327 -0.78412,14.31246 -1.33734,15.01656 -0.55323,0.70408 -4.11536,2.25605 -7.9178,3.45215 -3.80242,1.19609 -9.29245,3.2894 -12.19851,4.64687 -2.90605,1.35748 -5.90741,2.46865 -6.67417,2.46865 -0.76678,0 -5.69179,-4.40727 -10.94242,-9.78879 -9.10233,-9.32924 -9.7469,-9.78222 -13.81082,-9.78222 -4.20287,0 -4.47655,0.22661 -19.65387,16.25748 -14.84306,15.67779 -15.39187,16.40919 -15.39187,20.46211 0,4.9176 1.52856,7.24918 10.93617,16.67333 3.60151,3.60784 6.80632,7.40544 7.11788,8.44227 0.33031,1.09921 -0.81912,4.8104 -2.75591,8.90432 -1.82686,3.86153 -4.101,9.57089 -5.04939,12.68651 -2.7602,9.0676 -2.74795,9.05958 -17.2354,9.44557 l -12.66721,0.33664 -3.33709,3.84819 -3.3371,3.8482 0.006,20.3565 c 0.003,18.60107 0.1703,20.65376 1.96851,23.76906 2.89574,5.01667 6.97156,6.37112 19.20392,6.38946 5.78262,0.008 11.06307,0.38445 11.72981,0.83168 0.66674,0.44723 2.24416,4.02614 3.51207,7.96042 1.2679,3.9343 3.68886,10.04009 5.37435,13.5644 1.68549,3.52434 3.06213,6.92405 3.06213,7.55778 0,0.63374 -3.92107,5.44683 -8.71769,10.69311 -14.1035,15.42558 -13.94133,16.41679 6.118,37.44567 l 14.92944,15.65682 h 4.69317 c 4.59778,0 4.87251,-0.18471 13.69209,-9.32017 4.95044,-5.12774 9.8345,-9.39128 10.84868,-9.47198 1.01417,-0.0806 5.56838,1.52466 10.12376,3.57096 4.55538,2.04631 10.18648,4.31083 12.51723,5.02974 5.39367,1.66366 6.00088,3.34696 6.00553,16.69311 0.003,8.70039 0.33808,11.07645 1.9685,13.90104 3.34987,5.80343 5.96509,6.39156 27.12169,6.11224 l 18.85397,-0.25083 2.8434,-3.36635 c 2.81413,-3.32907 2.84341,-3.48852 2.84341,-16.01986 0,-8.55084 0.39541,-13.20764 1.21859,-14.33667 0.6704,-0.91947 3.85,-2.45198 7.06789,-3.40596 3.21789,-0.95398 9.0971,-3.30421 13.06091,-5.22113 3.96383,-1.91692 7.52131,-3.48517 7.90529,-3.48517 0.38398,0 5.14007,4.40729 10.57372,9.78882 8.55096,8.46893 10.33665,9.78221 13.26088,9.78221 1.85818,0 4.38612,-0.48897 5.61807,-1.08912 1.23194,-0.60014 8.49303,-7.684 16.13553,-15.73602 l 13.89206,-14.63371 v -4.7921 c 0,-5.45063 -1.07158,-7.15021 -12.03604,-19.05617 l -6.82417,-7.41256 3.01214,-7.00332 c 1.6581,-3.85369 4.21686,-10.63726 5.6868,-15.07596 2.04817,-6.18464 3.22092,-8.2948 5.01814,-9.01653 1.28986,-0.51797 7.1216,-0.9373 12.96093,-0.9373 18.1112,0 18.51024,-0.63319 18.51024,-29.20802 0,-13.02421 -0.39698,-21.05861 -1.12486,-22.74595 -2.16447,-5.01766 -5.21907,-6.15808 -17.39789,-6.50827 -15.71653,-0.45191 -15.10135,-0.18386 -17.47912,-7.71619 -1.1179,-3.54136 -3.56725,-9.65134 -5.44309,-13.5842 -1.87582,-3.93286 -3.40583,-7.8849 -3.40583,-8.77891 0,-0.894 3.9471,-5.77685 8.77394,-10.85152 8.6281,-9.07109 8.77393,-9.31318 8.77393,-14.19147 v -4.95711 L 848.3413,630.47024 c -8.7026,-9.00868 -16.13161,-15.8368 -17.90407,-16.4621 -4.64027,-1.63703 -7.67541,0.16386 -17.56035,10.39608 -4.88867,5.06041 -9.33198,9.20133 -9.8738,9.20133 -0.54182,0 -3.47819,-1.16459 -6.52421,-2.58745 -3.04603,-1.42286 -8.68974,-3.50794 -12.54847,-4.63368 -3.85872,-1.12575 -7.56611,-2.83027 -8.2365,-3.78879 -0.80674,-1.15347 -1.2186,-5.70267 -1.2186,-13.4456 0,-12.509 -0.98025,-16.21601 -5.08689,-19.25419 -1.79537,-1.32823 -5.60291,-1.61056 -21.92857,-1.61056 z m 21.39116,65.53817 c 7.2461,-0.007 14.48304,0.75726 19.90383,2.29704 39.5202,11.22565 65.37255,52.17105 58.79283,93.10261 -3.174,19.74507 -11.01544,35.46521 -24.39703,48.89125 -16.41078,16.4653 -40.74333,25.12219 -62.55489,22.2509 -32.99106,-4.34295 -59.83974,-28.3649 -68.94159,-61.68997 -3.15633,-11.55637 -3.14096,-31.35274 0.0312,-43.12225 7.83828,-29.08155 29.45064,-51.52219 57.20553,-59.39954 5.4559,-1.54848 12.71398,-2.32423 19.96008,-2.33004 z m -460.02526,12.73932 -12.29849,23.43242 c -6.7616,12.88735 -13.68233,26.00791 -15.38563,29.15521 -5.54963,10.25433 -23.10372,9.20795 155.11237,9.20795 86.31979,0 157.63861,-0.28322 158.48695,-0.62708 1.11262,-0.45096 1.54356,-2.01334 1.54356,-5.61057 0,-9.53968 2.95798,-28.74003 6.34298,-41.16184 1.87342,-6.87478 3.40584,-12.93103 3.40584,-13.4522 0,-0.57266 -58.7917,-0.94389 -148.60066,-0.94389 z m 459.58781,11.32677 c -3.74046,0 -5.06757,0.54064 -7.40535,3.00991 l -2.8559,3.01651 v 36.8252 36.82521 l -8.16776,-8.42247 c -7.16915,-7.39117 -8.59996,-8.42248 -11.68608,-8.42248 -2.5078,0 -4.42824,0.86011 -6.69918,3.00331 -2.80336,2.64567 -3.18712,3.63249 -3.18712,8.23105 v 5.22115 l 17.99157,19.02316 c 9.89291,10.46073 18.8835,19.16031 19.98506,19.34 5.31062,0.86629 7.54211,-0.85021 24.98447,-19.2872 9.64649,-10.19659 17.7903,-19.58647 18.10404,-20.86476 1.73026,-7.04991 -3.50092,-14.66671 -10.07377,-14.66671 -3.01171,0 -4.507,1.0855 -11.62359,8.42248 l -8.17401,8.42247 v -36.33676 -36.33675 l -3.31208,-3.49837 c -2.82529,-2.98416 -3.99394,-3.50495 -7.8803,-3.50495 z"
       inkscape:label="Original" />
    <path
       style="display:inline;fill:#ffffff;fill-opacity:1;stroke-width:1.29967"
       d="m 727.58187,775.47085 c -18.47141,-19.3439 -19.81669,-21.54689 -17.3329,-28.38358 0.7808,-2.14916 6.75262,-6.07055 9.2447,-6.07055 0.71703,0 5.29782,3.97975 10.17956,8.8439 l 8.87585,8.84391 v -36.77507 -36.77509 l 3.89079,-3.45799 c 4.89786,-4.35307 7.55399,-4.35307 12.45186,0 l 3.89082,3.45799 v 36.61328 c 0,20.13731 0.38123,36.61329 0.8472,36.61329 0.46595,0 4.67862,-3.90692 9.36148,-8.68209 4.68285,-4.77517 9.46697,-8.68213 10.63141,-8.68213 1.1644,0 3.78053,1.757 5.81362,3.9044 6.64432,7.01796 5.72443,8.95661 -14.38567,30.31732 -14.90497,15.8319 -18.72072,19.20668 -21.71624,19.20668 -2.98145,0 -6.88757,-3.40723 -21.75248,-18.97427 z"
       id="path36"
       inkscape:label="Arrow" />
    <path
       style="display:inline;fill:#55789b;fill-opacity:1;stroke-width:1.29967"
       d="m 731.43481,884.35248 c -1.47847,-0.30652 -3.97814,-2.00741 -5.55478,-3.78006 -2.41187,-2.71168 -2.98959,-5.23364 -3.64189,-15.89807 -0.42638,-6.97134 -1.34115,-13.24948 -2.03274,-13.95152 -1.57319,-1.59677 -24.28973,-10.86356 -26.63091,-10.86356 -0.94852,0 -6.15362,4.20747 -11.56685,9.34995 -13.78859,13.09897 -14.0173,13.06186 -30.87659,-5.00889 -14.3452,-15.376 -17.54314,-19.62189 -17.54314,-23.29189 0,-1.28033 4.24806,-7.47407 9.44013,-13.76385 8.07937,-9.78752 9.27749,-11.864 8.31169,-14.40523 -0.62066,-1.63306 -3.33275,-8.37885 -6.02682,-14.99062 l -4.89835,-12.02137 -12.13381,-0.75705 c -19.5509,-1.21982 -21.23026,-3.73717 -21.24222,-31.84177 -0.007,-15.71092 0.1603,-16.80197 3.21878,-21.03743 3.20594,-4.43958 3.29128,-4.46715 13.8282,-4.46715 12.18943,0 16.63385,-1.37165 18.30657,-5.64993 0.65202,-1.66771 2.92131,-7.34042 5.04281,-12.60602 2.12154,-5.26564 3.85733,-10.85687 3.85733,-12.42501 0,-1.69873 -3.57804,-6.84399 -8.85218,-12.72962 -6.01418,-6.71144 -8.85213,-10.92925 -8.85213,-13.15625 0,-3.6838 20.17277,-27.06961 28.79387,-33.38004 6.34681,-4.6457 8.11587,-3.95663 20.34786,7.92576 l 9.30709,9.04103 13.45557,-4.98476 c 7.40058,-2.74163 13.85531,-5.40651 14.34389,-5.92198 0.48855,-0.51549 1.2823,-7.37428 1.76385,-15.24177 1.24794,-20.38818 0.81587,-20.06715 26.2641,-19.5118 25.29349,0.55198 25.14353,0.43752 25.878,19.7515 0.29724,7.82049 1.11154,13.8618 1.96942,14.61386 1.4189,1.24381 25.81724,10.80979 27.57274,10.8106 0.48033,2e-4 5.1037,-4.14265 10.27414,-9.20637 5.17044,-5.06367 10.58889,-9.60502 12.04097,-10.0918 3.97452,-1.33243 7.12208,1.03921 22.65305,17.06858 12.23518,12.62782 14.22666,15.2784 14.22666,18.93524 0,2.63362 -1.01662,5.22055 -2.67091,6.79658 -1.46898,1.39947 -5.51252,6.00522 -8.9856,10.23499 l -6.31472,7.6905 5.19185,12.50396 c 2.85549,6.87719 5.19181,13.1627 5.19181,13.96782 0,2.66295 4.28863,3.87631 16.10128,4.55553 16.80678,0.96638 17.57079,1.69329 18.71449,17.80562 0.50346,7.09287 0.54288,17.48538 0.0877,23.09452 -0.69931,8.61586 -1.32397,10.66475 -4.02556,13.20373 -2.80366,2.63494 -4.57465,3.00536 -14.36853,3.00536 -8.83751,0 -11.69607,0.48822 -13.68601,2.33747 -1.38338,1.28565 -4.71856,8.3482 -7.41148,15.6946 -2.69292,7.34642 -5.07091,13.76034 -5.28441,14.25321 -0.21341,0.49284 3.25951,5.00089 7.71781,10.01783 14.70327,16.54569 14.67025,17.39349 -1.32281,33.98224 -14.60856,15.15268 -18.70144,18.55004 -22.34766,18.55004 -1.59685,0 -7.13019,-4.14478 -13.38982,-10.02979 -5.86754,-5.51638 -10.9681,-9.87413 -11.33459,-9.6839 -0.36645,0.19027 -6.35695,2.69219 -13.31223,5.5599 -6.95525,2.86769 -13.30475,5.75034 -14.10996,6.40587 -0.87602,0.71319 -1.63788,6.48995 -1.89689,14.38313 -0.38665,11.78364 -0.75998,13.55871 -3.49858,16.63512 -3.02092,3.39347 -3.31711,3.44122 -20.23351,3.26197 -9.44224,-0.10004 -18.37738,-0.43259 -19.85589,-0.73901 z m 36.18068,-65.27413 c 14.79126,-3.68215 26.07414,-10.46643 37.60288,-22.61013 8.38633,-8.8337 11.36803,-13.11965 15.43092,-22.18085 11.61807,-25.91087 11.59404,-49.62895 -0.0755,-74.63245 -9.47978,-20.31136 -28.27637,-36.78541 -49.7775,-43.6269 -9.05274,-2.88052 -33.4492,-3.23669 -42.36382,-0.61846 -41.5775,12.21133 -67.3074,57.52246 -57.53191,101.31547 6.59413,29.54098 30.93137,54.98584 59.6039,62.31659 9.90302,2.53192 27.01995,2.54885 37.11117,0.0368 z"
       id="path30"
       inkscape:label="Gear" />
    <path
       style="display:inline;fill:#ffffff;fill-opacity:1;stroke-width:1.29967"
       d="m 266.22385,726.68064 c -6.69168,-0.70809 -7.65698,-1.99502 -4.85994,-6.47931 1.28192,-2.05521 8.03219,-14.59164 15.00061,-27.85877 l 12.66985,-24.12203 148.38683,-0.33945 c 118.5472,-0.27138 148.26873,-0.003 147.79964,1.3357 -2.37674,6.78056 -6.50507,27.13906 -8.33003,41.07863 l -2.18588,16.69635 -151.71135,0.11221 c -83.44125,0.0615 -153.98762,-0.12877 -156.76973,-0.42319 z"
       id="path37"
       inkscape:label="Slat-5" />
    <path
       style="display:inline;fill:#ffffff;fill-opacity:1;stroke-width:1.29967"
       d="m 260.96489,626.45576 c -0.99412,-0.66814 3.47832,-10.10449 13.91052,-29.34973 l 15.3757,-28.365 69.55258,-0.0135 c 38.25391,-0.007 123.75105,0.3846 189.99368,0.87264 l 120.44115,0.88726 -9.66858,5.82057 c -20.06019,12.0763 -36.8831,26.97106 -47.81492,42.33453 l -6.29012,8.84001 -172.01739,-0.0202 c -94.6096,-0.0101 -172.67676,-0.46356 -173.48262,-1.00517 z"
       id="path32"
       inkscape:label="Slat-4" />
    <path
       style="display:inline;fill:#ffffff;fill-opacity:1;stroke-width:1.29967"
       d="m 305.68382,526.01403 -23.76965,-0.71447 17.15326,-27.53278 17.15326,-27.53274 6.61639,-0.83948 c 3.63902,-0.46168 67.83968,-0.84468 142.66815,-0.85104 74.82846,-0.007 165.97026,-0.40977 202.5373,-0.89643 l 66.48556,-0.88476 -0.70448,-12.47233 -0.70452,-12.47229 h 7.77338 7.77333 v 13.3571 13.35708 h 20.88399 20.88398 l -3.76153,7.68033 c -2.06883,4.22421 -9.07266,17.29745 -15.56406,29.05169 l -11.80253,21.37136 -214.92609,0.0467 c -118.20935,0.027 -225.62243,-0.2751 -238.69574,-0.66787 z"
       id="path33"
       inkscape:label="Slat-3" />
    <path
       style="display:inline;fill:#ffffff;fill-opacity:1;stroke-width:1.29967"
       d="m 421.87112,424.12438 c 1.31977,-1.6556 5.07407,-6.09105 8.34289,-9.85659 6.98171,-8.04263 16.0806,-22.55271 23.1695,-36.94865 l 5.05836,-10.2724 138.03737,-0.0145 138.03734,-0.0145 -0.69684,-13.3571 -0.69682,-13.3571 h 7.77144 7.77144 v 13.3571 13.3571 h 20.23347 c 15.36834,0 20.2224,0.40146 20.18737,1.66963 -0.0256,0.91831 -6.52878,14.2921 -14.45207,29.71956 l -14.40598,28.04987 -170.37853,0.33877 -170.37852,0.33877 z"
       id="path34"
       inkscape:label="Slat-2" />
    <path
       style="display:inline;fill:#ffffff;fill-opacity:1;stroke-width:1.29967"
       d="m 463.10236,313.92884 c 10.16935,-11.04617 18.09885,-23.07163 25.54547,-38.74096 l 4.60212,-9.6839 h 147.94141 c 117.53987,0 147.92993,0.34311 147.88552,1.66964 -0.032,0.9183 -6.51707,13.99156 -14.41402,29.05169 l -14.35809,27.38205 -153.36873,0.3393 -153.36871,0.33929 z"
       id="path35"
       inkscape:label="Slat-1" />
    <path
       style="display:inline;fill:#ffffff;fill-opacity:1;stroke-width:0.376808"
       d="m 733.7312,553.97217 c -0.0412,-4.68585 -0.0825,-9.25321 -0.0918,-10.1497 -0.016,-1.55152 0.0451,-1.64463 1.2666,-1.93443 0.70577,-0.16762 4.12926,-0.41953 7.60778,-0.56015 l 6.32453,-0.25584 v 10.70986 10.70986 h -7.51613 -7.51611 z"
       id="path39"
       inkscape:label="Slat" />
    <path
       style="display:inline;fill:#f09200;fill-opacity:1;stroke-width:1.29967"
       d="m 167.84148,178.906 c -18.11402,-19.32201 -19.26259,-21.66423 -13.85019,-28.24369 1.6869,-2.05063 4.73397,-3.77633 7.48419,-4.23865 4.5506,-0.76498 4.96789,-0.44037 21.9393,17.0676 l 17.30046,17.84741 -0.67771,5.33698 c -0.83692,6.59054 -4.56005,10.03927 -10.83808,10.03927 -4.3056,0 -5.94024,-1.36302 -21.35797,-17.80892 z"
       id="path21"
       inkscape:label="Sun NW" />
    <path
       style="display:inline;fill:#f09200;fill-opacity:1;stroke-width:1.29967"
       d="m 108.0694,285.18497 c -4.92468,-4.64765 -5.49951,-10.50533 -1.5759,-16.05892 l 2.55898,-3.62207 25.33873,-0.36113 25.33873,-0.36114 3.29556,4.13682 c 4.27531,5.36666 4.16572,9.53899 -0.3922,14.93039 l -3.68777,4.36213 -23.37063,0.43811 -23.37062,0.4381 z"
       id="path29"
       inkscape:label="Sun W" />
    <path
       style="display:inline;fill:#f09200;fill-opacity:1;stroke-width:1.29967"
       d="m 155.88468,405.10679 c -3.90429,-3.24383 -5.29502,-8.42201 -3.33133,-12.40384 0.80773,-1.63787 8.33249,-10.34104 16.72167,-19.34038 13.9234,-14.93608 15.65148,-16.36245 19.82347,-16.36245 5.794,0 11.36657,5.61111 11.36657,11.44517 0,3.29235 -2.80177,6.90585 -16.7728,21.63221 -18.26148,19.24875 -20.96823,20.71168 -27.80758,15.02929 z"
       id="path28"
       inkscape:label="Sun SW" />
    <path
       style="display:inline;fill:#f09200;fill-opacity:1;stroke-width:1.29967"
       d="m 270.33378,453.18587 -4.10993,-2.64679 v -25.83315 c 0,-25.27605 0.0631,-25.89577 2.92684,-28.7374 4.26374,-4.23083 11.46231,-3.93765 15.47014,0.63007 3.04338,3.46855 3.1011,3.96453 3.1011,26.65136 0,24.6626 -0.75251,28.63742 -5.88962,31.1097 -4.36277,2.09961 -6.80234,1.85057 -11.49853,-1.17379 z"
       id="path27"
       inkscape:label="Sun S" />
    <path
       style="display:inline;fill:#f09200;fill-opacity:1;stroke-width:1.29967"
       d="m 369.62186,390.58108 c -14.51719,-15.44793 -16.14113,-17.64717 -16.14113,-21.85908 0,-6.83165 4.08323,-11.72188 9.78751,-11.72188 4.13668,0 6.06171,1.58571 21.40041,17.6283 9.27016,9.69557 17.15651,18.63222 17.52521,19.85923 0.82832,2.75656 -1.01374,8.11087 -3.80453,11.05861 -1.27765,1.34949 -4.14498,2.21083 -7.35973,2.21083 -5.06921,0 -5.87157,-0.64376 -21.40774,-17.17601 z"
       id="path26"
       inkscape:label="Sun SE" />
    <path
       style="display:inline;fill:#f09200;fill-opacity:1;stroke-width:1.29967"
       d="m 391.51551,285.42089 c -3.08781,-2.74434 -3.8908,-4.50562 -3.8908,-8.53413 0,-3.00527 0.98537,-6.36256 2.41536,-8.22945 2.37024,-3.09444 2.88672,-3.1614 27.65613,-3.58542 l 25.2408,-0.4321 2.69408,3.61758 c 3.28741,4.4143 3.60282,12.79232 0.60094,15.96301 -3.78833,4.00139 -7.95061,4.65853 -29.50698,4.65853 -21.09019,0 -21.36043,-0.037 -25.20953,-3.45802 z"
       id="path25"
       inkscape:label="Sun E" />
    <path
       style="display:inline;fill:#f09200;fill-opacity:1;stroke-width:1.29967"
       d="m 356.1017,193.19551 c -5.39809,-7.24848 -4.09468,-10.03852 13.4283,-28.74418 16.72664,-17.85557 20.92949,-20.55919 26.80061,-17.24035 3.60423,2.0374 6.7991,8.90201 5.75706,12.36982 -0.46336,1.54202 -7.9728,10.52803 -16.68764,19.96889 -15.43366,16.71945 -15.98581,17.16523 -21.26127,17.16523 -4.34488,0 -5.93449,-0.69608 -8.03706,-3.51941 z"
       id="path24"
       inkscape:label="Sun NE" />
    <path
       style="display:inline;fill:#f09200;fill-opacity:1;stroke-width:1.29967"
       d="m 270.84759,159.13801 c -4.49752,-2.76137 -5.88997,-9.45575 -5.85815,-28.1639 0.045,-26.48761 1.84911,-31.766017 10.85713,-31.766017 10.56848,0 11.87536,3.366647 11.87536,30.592147 0,12.82034 -0.56192,22.67747 -1.40404,24.62968 -2.3555,5.46048 -10.30468,7.87967 -15.4703,4.70809 z"
       id="path23"
       inkscape:label="Sun N" />
    <path
       style="display:inline;fill:#f09200;fill-opacity:1;stroke-width:1.29967"
       d="m 250.83732,367.89446 c -16.80871,-5.92294 -26.80918,-12.44307 -39.095,-25.48926 -18.93725,-20.10928 -27.55486,-43.30323 -26.05625,-70.12941 0.84809,-15.18129 3.07906,-24.2214 9.08757,-36.8237 11.78517,-24.7183 31.77502,-42.5593 56.72447,-50.62677 6.8611,-2.21856 12.01476,-2.80321 24.71,-2.80321 19.30349,0 26.568,1.76661 42.34995,10.29883 20.17641,10.90799 35.18932,29.24917 44.623,54.51566 3.27231,8.76432 3.48175,10.58604 3.52835,30.68877 0.049,21.18302 0.0127,21.46466 -4.11127,31.95824 -8.06228,20.51393 -23.25761,39.60053 -39.76529,49.94855 -13.72957,8.60651 -23.5896,11.30086 -43.33078,11.84051 -16.78817,0.45892 -18.27144,0.28412 -28.66475,-3.37821 z"
       id="path22"
       inkscape:label="Sun" />
    <path
       style="display:inline;fill:#ffffff;fill-opacity:1;stroke-width:1.29967"
       d="m 261.63228,841.52923 -65.29201,-0.35812 -5.32556,-6.10245 -5.32555,-6.10249 0.43269,-194.86219 0.4327,-194.86216 9.36022,-9.06382 c 5.14812,-4.9851 9.84291,-9.26415 10.43288,-9.50903 0.58997,-0.24502 1.07383,73.38613 1.07526,163.62444 0.002,90.23836 0.37729,179.84781 0.83525,199.13212 l 0.83266,35.06238 h 193.07667 193.07667 l 1.579,3.6732 c 0.86845,2.02026 3.80511,7.12254 6.52593,11.33842 2.72085,4.21589 4.94698,7.97256 4.94698,8.3482 0,0.64647 -205.09512,0.45806 -346.66379,-0.31836 z"
       id="path31"
       inkscape:label="Window border left" />
    <path
       style="display:inline;fill:#ffffff;fill-opacity:1;stroke-width:1.29967"
       d="m 835.66359,579.57702 -9.74352,-6.19188 -0.0569,-184.65793 -0.0569,-184.65792 -206.81366,-0.33792 -206.81367,-0.33792 9.85342,-11.74466 9.85343,-11.74467 201.07013,0.39113 c 199.62133,0.38831 201.10176,0.41073 205.45154,3.10982 9.08705,5.63869 8.55569,-1.16928 9.06629,116.1595 0.61605,141.56607 0.0503,286.54514 -1.11785,286.35707 -0.52167,-0.0842 -5.33305,-2.93909 -10.69198,-6.34462 z"
       id="path38"
       inkscape:label="Window border right" />
    <path
       style="font-size:875px;font-family:Yellowtail;-inkscape-font-specification:'Yellowtail, Normal';display:inline;stroke:#4e4e4e;stroke-width:1.69681;stroke-opacity:0.23301;fill:#ffffff"
       d="m 904.80987,774.61317 -2.7147,6.31152 q 0,6.77904 16.9144,13.09055 17.1233,6.07776 37.3788,6.07776 20.4644,0 44.89633,-6.77904 24.4319,-6.77903 42.3904,-16.59695 18.1673,-9.81791 29.8612,-20.57087 11.9027,-10.75295 11.9027,-18.70079 0,-10.05168 -20.8819,-18.70079 -20.882,-8.64912 -60.7666,-18.93455 -39.67583,-10.5192 -58.26073,-26.41487 -18.3762,-15.89567 -18.3762,-38.57038 0,-22.90846 14.6174,-43.71309 14.6174,-20.80463 38.0052,-36.93407 23.59663,-16.12943 51.36973,-28.75246 57.4254,-25.94735 106.4981,-25.94735 18.7938,0 33.2024,3.74016 27.5642,7.24656 27.5642,19.16831 0,11.92175 -1.8794,16.36319 -1.8794,4.20768 -3.1323,5.61024 -1.0441,1.40256 -2.9235,2.80512 -1.6705,1.40255 -2.5058,2.10383 -9.1881,8.64912 -50.3256,10.75296 -14.1997,0.70128 -15.4526,1.63632 -1.253,0.93504 -2.2971,0.93504 -0.8352,0 -2.0882,-1.87008 -1.2529,-1.87008 -1.2529,-6.07776 0,-4.20768 8.144,-15.42815 -25.476,1.63632 -54.502,13.09055 -28.8171,11.45424 -50.1168,25.94735 -21.29963,14.25935 -35.49933,28.28495 -14.1998,13.79183 -14.1998,19.63583 0,5.61023 3.1324,9.35039 8.7704,10.51919 48.65503,21.97343 41.3463,11.92175 55.1284,19.16831 13.7821,7.24655 22.7614,13.79183 9.188,6.54528 14.6173,13.32432 12.738,16.36319 12.738,33.1939 0,16.83071 -8.1439,31.55758 -7.9352,14.72688 -24.2231,28.51871 -16.0792,13.79183 -38.0052,24.54479 -48.0286,24.07726 -114.43333,24.07726 -48.4462,0 -61.8107,-28.75246 -3.5499,-7.24656 -3.5499,-14.96063 0,-7.94784 3.1323,-14.25935 3.3411,-6.31152 7.9352,-9.58416 8.9792,-6.31152 12.738,-6.31152 3.7587,0 3.7587,2.80512 z m 425.57483,-4.6752 q 1.4618,10.75296 1.4618,17.06447 0,6.07776 -2.0883,10.75296 -1.8793,4.44143 -8.7704,12.85679 -6.6822,8.1816 -16.0791,16.59695 -22.9702,20.33711 -46.9845,20.33711 -34.4552,0 -34.4552,-34.12894 0,-29.68751 46.1492,-118.2825 1.6705,-3.27264 2.297,-4.6752 -16.0792,12.62304 -61.6019,68.95917 -45.3139,56.10237 -60.3489,79.47836 -1.2529,2.10384 -6.2646,4.6752 -5.0117,2.57135 -7.9352,2.57135 -2.7146,0 -5.8469,-2.10383 -3.3411,-1.87008 -4.1764,-1.87008 -2.7147,0 -2.7147,-2.10384 0,-1.87008 7.5175,-21.27215 7.3087,-19.63583 19.4203,-48.62206 33.2023,-79.94588 98.7717,-208.04629 22.9702,-44.8819 35.9171,-63.58269 9.188,-13.32431 30.9053,-13.32431 4.594,0 5.2205,3.03888 0.6265,3.03888 0.6265,6.54527 0,3.5064 -1.253,7.0128 l -22.3437,39.0379 q -66.4047,115.9449 -100.0247,192.15062 32.5759,-44.41437 63.2724,-68.49164 19.0027,-15.19439 28.3995,-15.19439 9.6058,0 17.3321,3.50639 7.7263,3.27264 7.7263,16.12944 0,4.67519 -13.5733,34.59645 -40.7198,89.7638 -40.7198,99.81547 0,9.81792 7.3086,9.81792 10.6498,0 32.7847,-23.14223 16.7056,-17.53199 21.0909,-22.44094 2.5058,-2.10385 4.594,-2.10385 3.9676,0 4.3852,4.44144 z m 143.668,-108.69834 q 15.8703,0 15.8703,12.15551 0,6.54528 -2.7146,9.58416 -2.7147,3.03888 -11.6939,20.33711 -8.7705,17.06447 -19.6291,43.94686 -10.6498,26.64862 -13.7821,45.58317 -0.6265,2.3376 -0.6265,6.54528 0,12.85679 6.2646,12.85679 6.2646,0 14.8263,-6.54528 8.5616,-6.77903 15.2438,-14.25935 6.6822,-7.71408 12.9468,-15.66191 6.4734,-7.94784 7.7264,-9.11664 1.2529,-1.1688 3.7587,-1.1688 3.9676,0 4.8029,6.77904 0.8353,6.77904 0.8353,14.02559 0,7.24656 -1.253,10.05168 -6.0557,13.32431 -26.7289,32.0251 -20.4644,18.70079 -37.3787,18.70079 -16.7056,0 -24.6408,-11.45423 -7.9351,-11.45424 -7.9351,-25.24607 0,-14.02559 4.1763,-24.54478 -17.332,25.24606 -39.8845,42.77805 -22.3438,17.53199 -36.5435,17.53199 -14.1998,0 -23.179,-9.58415 -11.4851,-11.92175 -11.4851,-32.96014 0,-21.27215 8.3528,-42.5443 8.5616,-21.50591 22.3437,-39.0379 13.7821,-17.76575 30.2789,-32.25886 34.6641,-30.38879 63.8988,-30.38879 11.2763,0 18.3762,4.20768 7.0999,4.20768 8.9793,10.51919 5.0116,-8.41535 8.3527,-10.51919 3.55,-2.3376 10.441,-2.3376 z m -27.773,25.94735 q -35.7082,0 -73.9222,44.41437 -13.5733,15.89567 -25.0584,38.10286 -11.2763,22.20719 -11.2763,30.38879 0,8.18159 4.1764,8.18159 5.847,0 32.5759,-25.71359 26.729,-25.94734 35.4994,-38.10285 9.6057,-13.55808 38.0052,-57.27117 z m 304.877,-198.6959 q 3.9675,0 6.2645,2.80512 2.2971,2.80511 2.2971,5.84399 0,2.80512 -4.1764,10.75296 -3.9676,7.71407 -18.585,34.12894 -14.6174,26.1811 -22.7614,41.14174 -47.402,86.25739 -74.3398,145.86617 -26.9378,59.60876 -26.9378,71.99804 v 1.87008 q 0,9.58415 6.2646,9.58415 6.2646,0 15.0351,-6.54528 8.9792,-6.54527 15.6614,-14.02559 6.6823,-7.48032 13.3645,-15.42815 6.8911,-8.1816 8.3528,-9.58415 1.4617,-1.40257 3.7587,-1.40257 3.55,0 4.5941,5.14272 1.0441,4.90896 1.0441,14.0256 0,8.88287 -1.2529,11.68799 -6.0558,13.09055 -26.729,32.0251 -20.4643,18.70079 -38.8405,18.70079 -31.3229,0 -31.3229,-29.6875 0,-18.46703 12.5292,-48.3883 -16.9144,24.54479 -34.4553,41.84302 -32.5759,31.79134 -56.5902,31.79134 -13.3644,0 -19.8379,-10.51919 -6.2645,-10.51919 -6.2645,-30.15502 0,-19.86959 13.7821,-47.45326 13.782,-27.58367 34.2464,-49.55709 20.6732,-22.2072 45.7315,-36.93407 25.0584,-14.96063 46.1492,-14.96063 6.6823,0 15.6615,9.11664 6.0558,-10.75296 22.3437,-43.01182 51.1609,-96.54283 67.6576,-117.81498 8.7705,-12.85679 27.3555,-12.85679 z M 1621.0619,684.1481 q -30.0701,7.48031 -55.9637,31.32382 -25.8937,23.84351 -38.8405,50.02461 -12.9468,25.94735 -12.9468,33.66143 0,7.71407 2.9234,7.71407 12.5292,0 62.0195,-62.64764 24.6408,-30.85631 42.8081,-60.07629 z m 185.6408,-23.37599 q 6.2646,0 12.7381,6.31152 6.6822,6.31151 6.6822,19.40206 0,12.8568 -8.144,33.66143 -8.144,20.57087 -22.3437,42.07678 -14.1997,21.27215 -31.323,40.2067 -16.9144,18.70078 -36.7523,30.8563 -19.629,11.92176 -35.7082,11.92176 -16.0791,0 -25.8936,-11.22048 -9.6057,-11.45423 -9.6057,-31.55758 0,-20.33711 8.7704,-44.8819 8.9793,-24.54479 22.9702,-43.24558 13.9909,-18.93455 30.2789,-33.89518 34.0376,-30.62255 59.7224,-30.62255 11.4851,0 17.3321,6.31152 2.0882,2.10384 2.0882,3.74016 v 1.40256 q 2.9235,-0.46752 9.188,-0.46752 z m -21.0908,31.09006 h -1.4617 q -7.3087,0 -7.3087,-11.92175 -15.2438,5.61024 -31.9494,19.63583 -16.7056,14.02559 -29.8613,33.1939 -26.7289,38.33662 -27.1466,64.75149 0,13.09055 8.5617,13.09055 8.5616,0 25.476,-12.62303 16.9144,-12.62303 33.4112,-35.99902 16.7056,-23.37599 24.8495,-40.44046 8.3528,-17.29823 8.3528,-23.37599 0,-6.31152 -2.9235,-6.31152 z m 252.8808,-26.64862 -2.5058,-11.22048 q 0,-9.58415 5.8469,-14.96063 6.0558,-5.61023 15.035,-5.61023 17.5409,0 17.5409,25.0123 0,17.99951 -15.8703,49.79086 -15.8703,31.55758 -37.5876,61.24508 -21.5084,29.45375 -45.7315,51.42718 -24.2231,21.73966 -37.3787,21.73966 -12.9469,0 -18.3762,-7.94783 -5.4293,-7.94784 -5.4293,-15.19439 0,-7.48032 0.6265,-14.02559 2.297,-22.90848 11.2762,-43.71311 -22.3437,32.72639 -48.0285,58.9075 -25.6849,25.94735 -43.0169,25.94735 -8.3528,0 -13.3645,-5.61024 -5.0117,-5.61024 -5.0117,-18.93455 0,-13.55808 14.4086,-50.49214 14.4086,-37.16782 27.5642,-59.60877 -4.8028,3.27264 -8.5616,3.27264 -3.5499,0 -7.9352,-4.44144 -4.1764,-4.6752 -4.1764,-7.24656 0,-2.57135 3.1323,-7.48031 3.1324,-4.90896 24.0143,-24.07726 20.882,-19.40208 28.6083,-19.40208 7.7264,0 14.6174,3.27264 7.0999,3.27264 7.0999,9.11663 0,5.61024 -29.0259,66.62157 -29.026,61.01133 -29.026,66.15405 0,0.70128 0.4176,0.70128 4.3853,0 43.6434,-50.02462 39.4669,-50.02461 62.0195,-82.28348 3.1323,-5.84399 9.3969,-5.84399 l 1.8794,0.23376 11.485,-2.57136 q 2.7147,0 5.2205,2.3376 2.7147,2.3376 2.7147,4.20768 0,1.87008 -7.5175,16.83071 -7.3087,14.96063 -24.0143,56.56989 -16.7056,41.60926 -16.7056,58.43997 0,4.20768 2.7147,4.20768 7.9351,0 32.9935,-32.02511 25.2672,-32.25886 41.1375,-61.7126 15.8703,-29.45375 15.8703,-41.60926 z m 337.4529,37.40158 q 5.0117,0 5.0117,9.11663 0,8.88288 -3.55,30.85631 -2.7146,14.72687 -30.07,42.07678 -32.9936,32.72638 -72.4605,46.75197 -23.8055,8.41536 -46.5668,8.41536 -22.5526,0 -41.3464,-21.27215 -18.5849,-21.50591 -18.5849,-50.7259 0,-29.45374 10.441,-60.77756 10.6498,-31.55759 28.3994,-60.07629 17.9586,-28.75247 42.1816,-55.16733 24.432,-26.41487 50.7433,-45.81694 26.3113,-19.40208 55.1284,-30.85631 28.8172,-11.45423 54.7108,-11.45423 20.4644,0 34.8729,16.59695 7.5175,8.88288 7.5175,22.44095 0,13.32431 -11.6939,33.89518 -11.6939,20.33711 -27.773,37.16782 -15.8703,16.83071 -32.9936,28.51871 -16.9144,11.68799 -27.1465,11.68799 -10.2322,0 -17.5409,-7.01279 -7.3087,-7.24656 -7.3087,-12.8568 0,-5.61023 2.0882,-12.38927 2.297,-6.77904 5.6382,-6.77904 -0.8353,1.1688 -0.8353,2.3376 0,2.80512 7.0999,2.80512 7.3087,0 24.223,-14.25935 16.9144,-14.25936 30.4877,-32.02511 13.7822,-17.76575 13.7822,-26.64862 0,-6.07776 -7.3087,-6.07776 -19.6291,0 -54.2932,20.57087 -34.4553,20.33711 -65.9871,52.59597 -31.5317,32.25886 -54.9196,76.67324 -23.179,44.18062 -23.179,79.47836 0,14.72687 6.8911,23.60975 7.0999,8.88288 21.5084,8.88288 14.6174,0 34.4553,-9.3504 19.8379,-9.35039 37.5875,-22.90847 17.9586,-13.55807 33.8289,-27.81742 15.8703,-14.25936 25.2672,-25.01231 9.6057,-10.75295 9.8145,-12.85679 0.2088,-2.3376 1.8794,-2.3376 z m 155.9884,-41.84302 q 6.2646,0 12.738,6.31152 6.6823,6.31151 6.6823,19.40206 0,12.8568 -8.144,33.66143 -8.144,20.57087 -22.3437,42.07678 -14.1998,21.27215 -31.323,40.2067 -16.9144,18.70078 -36.7523,30.8563 -19.6291,11.92176 -35.7082,11.92176 -16.0791,0 -25.8936,-11.22048 -9.6058,-11.45423 -9.6058,-31.55758 0,-20.33711 8.7705,-44.8819 8.9792,-24.54479 22.9701,-43.24558 13.991,-18.93455 30.2789,-33.89518 34.0376,-30.62255 59.7225,-30.62255 11.4851,0 17.332,6.31152 2.0882,2.10384 2.0882,3.74016 v 1.40256 q 2.9235,-0.46752 9.1881,-0.46752 z m -21.0908,31.09006 h -1.4618 q -7.3086,0 -7.3086,-11.92175 -15.2439,5.61024 -31.9494,19.63583 -16.7056,14.02559 -29.8613,33.1939 -26.7289,38.33662 -27.1466,64.75149 0,13.09055 8.5616,13.09055 8.5617,0 25.4761,-12.62303 16.9143,-12.62303 33.4111,-35.99902 16.7056,-23.37599 24.8496,-40.44046 8.3528,-17.29823 8.3528,-23.37599 0,-6.31152 -2.9235,-6.31152 z m 144.921,111.03595 q 0,10.28543 12.5292,10.28543 6.6822,0 16.7056,-7.48032 10.2321,-7.48031 18.3761,-16.36319 21.7172,-24.07726 24.6407,-24.07726 5.4294,0 5.4294,17.53199 0,17.53198 -9.8146,24.07726 -29.8612,30.15503 -46.1492,36.70031 -9.188,3.50639 -20.2555,3.27263 -11.0674,-0.23375 -21.9261,-10.75295 -10.8586,-10.5192 -10.8586,-25.47983 0,-15.19439 7.0999,-34.3627 7.0999,-19.16831 14.4086,-32.72638 7.5174,-13.79184 18.3761,-31.79135 10.8586,-18.23327 11.4851,-22.6747 l -0.4176,-0.46752 q -6.8911,0.70127 -34.2465,30.38878 -27.1466,29.6875 -44.8963,51.66093 -17.7497,21.97343 -42.3904,58.67373 -6.8911,10.05168 -11.2763,10.05168 -4.3852,0 -11.6939,-3.03888 -7.5175,-3.27264 -9.188,-4.6752 -1.6706,-1.40256 -1.6706,-4.20768 0,-2.80511 1.4617,-6.77903 1.4617,-4.20768 2.9235,-6.77904 1.2529,-2.80512 4.3852,-8.41535 3.1323,-5.61024 12.3204,-23.60975 9.3969,-18.23328 28.6083,-54.23229 19.2114,-35.99903 22.9702,-43.47934 7.9351,-15.42816 12.9468,-22.44095 9.3969,-13.32432 31.7406,-13.32432 5.0117,0 5.0117,7.0128 0,10.98672 -18.1673,41.3755 l -8.7704,14.72687 q 36.1258,-44.88189 60.9753,-56.80365 12.1116,-5.84399 21.7173,-5.84399 9.8146,0 15.4527,5.84399 5.8469,5.844 5.8469,13.09056 0,7.01279 -4.3852,17.06447 -4.3852,9.81791 -8.9793,17.76575 -4.3852,7.71407 -11.6938,19.63583 -7.3087,11.92175 -7.9352,13.09055 -0.6265,0.93504 -3.3411,5.61024 -2.5059,4.44144 -3.7588,6.54527 -1.2529,2.10384 -4.1764,7.48032 -2.9234,5.14272 -4.8028,8.64911 -1.6706,3.5064 -4.3853,8.64912 -2.5058,5.14272 -4.1763,8.88288 -1.4618,3.74015 -3.1323,8.18159 -2.9235,8.1816 -2.9235,13.55808 z m 201.72,-265.08371 8.5616,2.3376 q 1.8793,0 3.3411,2.10384 1.4617,2.10384 1.4617,3.97392 0,1.87008 -4.3852,10.05167 -4.3852,8.1816 -10.441,18.70079 -5.8469,10.28544 -6.2646,11.22048 16.288,-1.40256 22.9702,-1.40256 6.891,0 9.3969,1.16879 2.5058,0.93505 5.6381,5.84401 3.3411,4.67519 6.0558,7.24655 2.7147,2.3376 2.7147,7.24656 0,4.90895 -5.4294,8.41535 -5.2205,3.27264 -11.2762,3.97392 -48.4462,5.37648 -53.4579,5.61024 -16.9144,28.98622 -47.4021,90.46507 -30.2789,61.24509 -32.1582,76.67324 -0.8353,7.0128 -0.8353,11.45424 0,9.11663 8.5616,9.11663 8.5616,0 19.0025,-7.24655 10.4411,-7.48032 19.2115,-16.12944 23.3878,-23.37598 25.0584,-23.37598 5.4293,0 5.4293,21.03838 0,11.45424 -9.3969,20.57087 -21.0908,20.33711 -35.4994,30.62255 -14.4086,10.28544 -28.8171,10.28544 -3.1323,0 -5.8469,-0.70129 -16.7056,-3.50639 -24.6408,-13.55807 -7.7263,-10.28543 -7.7263,-27.58367 0.2088,-17.29823 9.188,-41.84302 9.1881,-24.77854 22.9702,-52.59597 22.5526,-45.34942 45.1051,-85.0886 l -7.9352,1.1688 q -24.223,3.03888 -28.1906,3.03888 h -1.8794 q -6.0558,0 -11.6939,-2.57135 -5.6381,-2.80512 -5.6381,-6.77904 0,-3.97392 2.9234,-7.71408 3.1323,-3.74016 3.7588,-5.84399 1.4617,-5.14272 10.8586,-11.45424 9.6057,-6.31151 14.4086,-6.54528 4.8029,-0.46751 9.188,-0.70128 4.5941,-0.23375 10.0234,-0.46751 5.6381,-0.23377 8.5616,-0.46752 l 18.7938,-0.93505 q 17.5408,-29.45374 24.0143,-37.8691 6.6822,-8.41535 7.7263,-9.11663 1.0441,-0.93504 4.1764,-0.93504 z m 16.4967,173.68359 q 49.2815,-62.64764 83.9456,-62.64764 8.5616,0 13.9909,5.84399 5.6382,5.61024 5.6382,14.72687 0,9.11664 -11.694,30.62255 -11.485,21.27215 -21.2996,35.99902 -5.2205,7.48032 -11.9027,7.48032 -6.4734,0 -10.2322,-5.37648 -3.5499,-5.37648 -3.5499,-12.62304 0,-16.12942 15.4526,-36.46653 l -0.4176,-0.46752 q -6.8911,0.70127 -34.2464,30.38878 -27.1466,29.6875 -46.358,53.29725 -19.0026,23.37599 -41.3464,57.03741 -6.4734,10.05168 -11.0674,10.05168 -4.3853,0 -11.6939,-3.03888 -7.5175,-3.27264 -8.9793,-4.6752 -1.6705,-1.40256 -1.6705,-4.67519 0,-3.27265 1.6705,-7.48032 1.6706,-4.44144 6.2646,-12.38928 4.3852,-7.94783 13.3645,-25.71358 9.1881,-17.76576 28.3995,-53.76477 19.2114,-35.99903 22.9702,-43.47934 7.9351,-15.42816 12.9468,-22.44095 9.3969,-13.32432 31.7406,-13.32432 5.0117,0 5.0117,7.0128 0,10.98672 -18.1673,41.3755 z m 222.8106,-50.72589 q 6.2646,0 12.7381,6.31152 6.6822,6.31151 6.6822,19.40206 0,12.8568 -8.144,33.66143 -8.144,20.57087 -22.3437,42.07678 -14.1997,21.27215 -31.323,40.2067 -16.9143,18.70078 -36.7522,30.8563 -19.6291,11.92176 -35.7082,11.92176 -16.0792,0 -25.8937,-11.22048 -9.6057,-11.45423 -9.6057,-31.55758 0,-20.33711 8.7704,-44.8819 8.9793,-24.54479 22.9702,-43.24558 13.9909,-18.93455 30.2789,-33.89518 34.0376,-30.62255 59.7224,-30.62255 11.4852,0 17.3321,6.31152 2.0882,2.10384 2.0882,3.74016 v 1.40256 q 2.9235,-0.46752 9.188,-0.46752 z m -21.0907,31.09006 h -1.4618 q -7.3087,0 -7.3087,-11.92175 -15.2438,5.61024 -31.9494,19.63583 -16.7056,14.02559 -29.8613,33.1939 -26.7289,38.33662 -27.1465,64.75149 0,13.09055 8.5616,13.09055 8.5616,0 25.476,-12.62303 16.9144,-12.62303 33.4112,-35.99902 16.7056,-23.37599 24.8495,-40.44046 8.3528,-17.29823 8.3528,-23.37599 0,-6.31152 -2.9234,-6.31152 z m 209.0286,-203.83862 q 10.0234,0 17.5409,6.77904 7.7263,6.54528 7.7263,19.63583 0,13.09056 -12.9468,41.14174 -12.9468,27.81743 -31.1142,57.03742 -18.1673,28.98622 -41.1375,61.7126 -36.3346,51.89469 -69.7458,93.2702 -0.2088,2.80511 -1.8794,10.51919 -1.4617,7.48031 -1.4617,15.19439 0,7.71408 6.2646,14.0256 6.4734,6.07775 15.8703,6.07775 9.3969,0 20.0467,-7.48032 10.8586,-7.48031 18.7938,-16.59695 20.8819,-24.07726 25.8936,-24.07726 5.0117,0 5.0117,17.06447 v 4.67519 q 0,9.11664 -2.9235,13.32431 -17.5408,24.07728 -39.4669,35.99903 -21.9261,11.68799 -41.5552,11.68799 -19.629,0 -29.8612,-13.32431 -10.2322,-13.55808 -10.2322,-36.93406 0,-45.58318 21.7173,-107.06203 21.9261,-61.71261 49.2815,-104.95818 61.6018,-97.71164 94.1777,-97.71164 z m -9.3968,38.80415 q 0,-3.5064 -2.0883,-3.5064 -7.3087,0 -38.4228,46.75197 -31.1141,46.75198 -45.1051,74.56941 -13.7821,27.81742 -26.1025,69.8942 24.6407,-32.72638 68.0753,-101.9193 43.6434,-69.42669 43.6434,-85.78988 z"
       id="text1"
       aria-label="Shadow Control"
       inkscape:label="Shadow Control" />
  </g>
</svg>
